<?xml version="1.0" encoding="iso-8859-1"?>
<!-- Generator: Adobe Illustrator 19.0.0, SVG Export Plug-In . SVG Version: 6.00 Build 0)  -->
<svg version="1.1" id="Layer_1" xmlns="http://www.w3.org/2000/svg" xmlns:xlink="http://www.w3.org/1999/xlink" x="0px" y="0px"
	 viewBox="0 0 512 512" style="enable-background:new 0 0 512 512;" xml:space="preserve">
<path style="fill:#D7D5D9;" d="M132.639,72.151h352.828c10.454,0,18.929,8.475,18.929,18.929v329.84
	c0,10.454-8.475,18.929-18.929,18.929H26.533c-10.454,0-18.929-8.475-18.929-18.929V91.08c0-10.454,8.475-18.929,18.929-18.929
	h31.395H132.639z"/>
<polygon style="fill:#FF5023;" points="100.621,376.989 55.597,376.989 55.597,399.294 251.948,399.294 251.948,376.989 
	180.61,376.989 "/>
<rect x="261.941" y="376.984" style="fill:#FF6243;" width="190.413" height="22.305"/>
<circle style="fill:#CD2A00;" cx="254.986" cy="385.997" r="20.277"/>
<g>
	<circle style="fill:#52A2E7;" cx="464.521" cy="113.38" r="12.166"/>
	<circle style="fill:#52A2E7;" cx="413.138" cy="113.38" r="12.166"/>
</g>
<path style="fill:#FF5023;" d="M223.501,166.768l79.101,62.188c0.912,0.718,0.912,2.1,0,2.817l-79.101,62.188
	c-1.175,0.924-2.899,0.087-2.899-1.408V168.176C220.602,166.68,222.326,165.843,223.501,166.768z"/>
<polygon style="opacity:0.33;fill:#FFFFFF;enable-background:new    ;" points="261.944,435.427 135.275,435.427 253.615,72.151 
	380.284,72.151 "/>
<path d="M485.468,64.547H132.639c-4.199,0-7.604,3.404-7.604,7.604s3.405,7.604,7.604,7.604h352.828
	c6.244,0,11.325,5.081,11.325,11.326v329.84c0,6.244-5.08,11.325-11.325,11.325H26.533c-6.244,0-11.325-5.08-11.325-11.325V91.081
	c0-6.244,5.08-11.326,11.325-11.326h31.395c4.199,0,7.604-3.404,7.604-7.604s-3.405-7.604-7.604-7.604H26.533
	C11.903,64.547,0,76.45,0,91.081v329.84c0,14.63,11.903,26.533,26.533,26.533h458.935c14.63,0,26.533-11.903,26.533-26.533V91.081
	C512,76.45,500.097,64.547,485.468,64.547z"/>
<path d="M47.993,376.99v22.305c0,4.2,3.405,7.604,7.604,7.604h179.116c0.566,0,1.115-0.066,1.646-0.184
	c4.942,4.448,11.475,7.161,18.632,7.161c7.055,0,13.504-2.64,18.42-6.977h178.945c4.2,0,7.604-3.404,7.604-7.604V376.99
	c0-4.2-3.404-7.604-7.604-7.604H277.368c-5.087-6.835-13.224-11.272-22.379-11.272s-17.293,4.437-22.379,11.272h-62.974
	c-4.199,0-7.604,3.404-7.604,7.604s3.405,7.604,7.604,7.604h57.507c-0.023,0.464-0.035,0.931-0.035,1.401
	c0,1.952,0.204,3.857,0.587,5.696H63.201v-7.097h33.468c4.199,0,7.604-3.404,7.604-7.604s-3.405-7.604-7.604-7.604H55.597
	C51.398,369.386,47.993,372.789,47.993,376.99z M444.751,384.594v7.097H282.283c0.383-1.839,0.587-3.744,0.587-5.696
	c0-0.469-0.012-0.937-0.035-1.401H444.751z M254.989,373.322c6.989,0,12.673,5.685,12.673,12.673s-5.685,12.673-12.673,12.673
	c-6.989,0-12.673-5.685-12.673-12.673S248.002,373.322,254.989,373.322z"/>
<path d="M484.291,113.386c0-10.901-8.869-19.77-19.77-19.77s-19.77,8.869-19.77,19.77s8.869,19.77,19.77,19.77
	S484.291,124.287,484.291,113.386z M459.959,113.386c0-2.515,2.047-4.562,4.562-4.562s4.562,2.047,4.562,4.562
	c0,2.515-2.047,4.562-4.562,4.562S459.959,115.901,459.959,113.386z"/>
<path d="M432.913,113.386c0-10.901-8.869-19.77-19.77-19.77c-10.901,0-19.77,8.869-19.77,19.77s8.869,19.77,19.77,19.77
	C424.043,133.156,432.913,124.287,432.913,113.386z M408.58,113.386c0-2.515,2.047-4.562,4.562-4.562s4.562,2.047,4.562,4.562
	c0,2.515-2.047,4.562-4.562,4.562S408.58,115.901,408.58,113.386z"/>
<path d="M222.409,301.96c2.057,0,4.093-0.685,5.791-2.02l79.101-62.189c2.28-1.793,3.588-4.483,3.589-7.383
	c0.001-2.9-1.306-5.593-3.588-7.39L228.2,160.79l0,0c-2.852-2.242-6.65-2.648-9.913-1.065c-3.262,1.585-5.288,4.824-5.288,8.451
	v124.377c0,3.628,2.027,6.865,5.289,8.451C219.606,301.645,221.013,301.96,222.409,301.96z M228.206,180.139l63.884,50.225
	l-63.884,50.225L228.206,180.139L228.206,180.139z"/>
<g>
</g>
<g>
</g>
<g>
</g>
<g>
</g>
<g>
</g>
<g>
</g>
<g>
</g>
<g>
</g>
<g>
</g>
<g>
</g>
<g>
</g>
<g>
</g>
<g>
</g>
<g>
</g>
<g>
</g>
</svg>
